<mxfile host="app.diagrams.net" modified="2023-10-05T07:03:53.382Z" agent="Mozilla/5.0 (Windows NT 10.0; Win64; x64) AppleWebKit/537.36 (KHTML, like Gecko) Chrome/117.0.0.0 Safari/537.36" etag="hz22IMGjfIxZxz1YzaaC" version="22.0.0" type="device">
  <diagram name="Page-1" id="xcvZiMsYLK5zJFHnXAHa">
    <mxGraphModel dx="1433" dy="638" grid="1" gridSize="10" guides="1" tooltips="1" connect="1" arrows="1" fold="1" page="1" pageScale="1" pageWidth="850" pageHeight="1100" math="0" shadow="0">
      <root>
        <mxCell id="0" />
        <mxCell id="1" parent="0" />
        <mxCell id="ord0Oj6eiO0hLrdSNwYG-1" value="" style="edgeStyle=orthogonalEdgeStyle;rounded=0;orthogonalLoop=1;jettySize=auto;html=1;" edge="1" parent="1" source="ord0Oj6eiO0hLrdSNwYG-2" target="ord0Oj6eiO0hLrdSNwYG-4">
          <mxGeometry relative="1" as="geometry" />
        </mxCell>
        <mxCell id="ord0Oj6eiO0hLrdSNwYG-2" value="START" style="ellipse;whiteSpace=wrap;html=1;" vertex="1" parent="1">
          <mxGeometry x="300" y="120" width="120" height="80" as="geometry" />
        </mxCell>
        <mxCell id="ord0Oj6eiO0hLrdSNwYG-3" value="" style="edgeStyle=orthogonalEdgeStyle;rounded=0;orthogonalLoop=1;jettySize=auto;html=1;" edge="1" parent="1" source="ord0Oj6eiO0hLrdSNwYG-4" target="ord0Oj6eiO0hLrdSNwYG-6">
          <mxGeometry relative="1" as="geometry" />
        </mxCell>
        <mxCell id="ord0Oj6eiO0hLrdSNwYG-4" value="Declare variables val_1, val_2, isContinue" style="whiteSpace=wrap;html=1;" vertex="1" parent="1">
          <mxGeometry x="300" y="240" width="120" height="60" as="geometry" />
        </mxCell>
        <mxCell id="ord0Oj6eiO0hLrdSNwYG-5" value="" style="edgeStyle=orthogonalEdgeStyle;rounded=0;orthogonalLoop=1;jettySize=auto;html=1;" edge="1" parent="1" source="ord0Oj6eiO0hLrdSNwYG-6" target="ord0Oj6eiO0hLrdSNwYG-9">
          <mxGeometry relative="1" as="geometry" />
        </mxCell>
        <mxCell id="ord0Oj6eiO0hLrdSNwYG-6" value="Prompt &amp;amp; Get val_1, val_2" style="shape=parallelogram;perimeter=parallelogramPerimeter;whiteSpace=wrap;html=1;fixedSize=1;" vertex="1" parent="1">
          <mxGeometry x="270" y="340" width="180" height="60" as="geometry" />
        </mxCell>
        <mxCell id="ord0Oj6eiO0hLrdSNwYG-7" value="" style="edgeStyle=orthogonalEdgeStyle;rounded=0;orthogonalLoop=1;jettySize=auto;html=1;entryX=0.5;entryY=0;entryDx=0;entryDy=0;" edge="1" parent="1" source="ord0Oj6eiO0hLrdSNwYG-9" target="ord0Oj6eiO0hLrdSNwYG-19">
          <mxGeometry relative="1" as="geometry">
            <mxPoint x="360" y="550" as="targetPoint" />
          </mxGeometry>
        </mxCell>
        <mxCell id="ord0Oj6eiO0hLrdSNwYG-8" value="" style="edgeStyle=orthogonalEdgeStyle;rounded=0;orthogonalLoop=1;jettySize=auto;html=1;" edge="1" parent="1" source="ord0Oj6eiO0hLrdSNwYG-9">
          <mxGeometry relative="1" as="geometry">
            <mxPoint x="500" y="480" as="targetPoint" />
          </mxGeometry>
        </mxCell>
        <mxCell id="ord0Oj6eiO0hLrdSNwYG-9" value="If val_1 &amp;gt; val_2" style="rhombus;whiteSpace=wrap;html=1;" vertex="1" parent="1">
          <mxGeometry x="270" y="440" width="180" height="80" as="geometry" />
        </mxCell>
        <mxCell id="ord0Oj6eiO0hLrdSNwYG-10" value="" style="edgeStyle=orthogonalEdgeStyle;rounded=0;orthogonalLoop=1;jettySize=auto;html=1;exitX=0.5;exitY=1;exitDx=0;exitDy=0;entryX=0.5;entryY=0;entryDx=0;entryDy=0;" edge="1" parent="1" source="ord0Oj6eiO0hLrdSNwYG-19" target="ord0Oj6eiO0hLrdSNwYG-21">
          <mxGeometry relative="1" as="geometry">
            <mxPoint x="360" y="610" as="sourcePoint" />
            <mxPoint x="360.0204081632652" y="650" as="targetPoint" />
          </mxGeometry>
        </mxCell>
        <mxCell id="ord0Oj6eiO0hLrdSNwYG-35" style="edgeStyle=orthogonalEdgeStyle;rounded=0;orthogonalLoop=1;jettySize=auto;html=1;exitX=1;exitY=0.5;exitDx=0;exitDy=0;entryX=1;entryY=0.5;entryDx=0;entryDy=0;" edge="1" parent="1" source="ord0Oj6eiO0hLrdSNwYG-39" target="ord0Oj6eiO0hLrdSNwYG-46">
          <mxGeometry relative="1" as="geometry">
            <mxPoint x="440" y="800" as="targetPoint" />
            <mxPoint x="700" y="520" as="sourcePoint" />
            <Array as="points">
              <mxPoint x="730" y="480" />
              <mxPoint x="730" y="790" />
            </Array>
          </mxGeometry>
        </mxCell>
        <mxCell id="ord0Oj6eiO0hLrdSNwYG-16" value="END" style="ellipse;whiteSpace=wrap;html=1;" vertex="1" parent="1">
          <mxGeometry x="300" y="968" width="120" height="80" as="geometry" />
        </mxCell>
        <mxCell id="ord0Oj6eiO0hLrdSNwYG-17" value="FALSE" style="text;strokeColor=none;align=center;fillColor=none;html=1;verticalAlign=middle;whiteSpace=wrap;rounded=0;" vertex="1" parent="1">
          <mxGeometry x="290" y="520" width="60" height="30" as="geometry" />
        </mxCell>
        <mxCell id="ord0Oj6eiO0hLrdSNwYG-18" value="TRUE" style="text;strokeColor=none;align=center;fillColor=none;html=1;verticalAlign=middle;whiteSpace=wrap;rounded=0;" vertex="1" parent="1">
          <mxGeometry x="440" y="450" width="60" height="30" as="geometry" />
        </mxCell>
        <mxCell id="ord0Oj6eiO0hLrdSNwYG-27" style="edgeStyle=orthogonalEdgeStyle;rounded=0;orthogonalLoop=1;jettySize=auto;html=1;exitX=1;exitY=0.5;exitDx=0;exitDy=0;entryX=0;entryY=0.5;entryDx=0;entryDy=0;" edge="1" parent="1" source="ord0Oj6eiO0hLrdSNwYG-19">
          <mxGeometry relative="1" as="geometry">
            <mxPoint x="500" y="590" as="targetPoint" />
          </mxGeometry>
        </mxCell>
        <mxCell id="ord0Oj6eiO0hLrdSNwYG-19" value="If val_1 &amp;lt; val_2" style="rhombus;whiteSpace=wrap;html=1;" vertex="1" parent="1">
          <mxGeometry x="270" y="550" width="180" height="80" as="geometry" />
        </mxCell>
        <mxCell id="ord0Oj6eiO0hLrdSNwYG-30" style="edgeStyle=orthogonalEdgeStyle;rounded=0;orthogonalLoop=1;jettySize=auto;html=1;exitX=1;exitY=0.5;exitDx=0;exitDy=0;entryX=0;entryY=0.5;entryDx=0;entryDy=0;" edge="1" parent="1" source="ord0Oj6eiO0hLrdSNwYG-21">
          <mxGeometry relative="1" as="geometry">
            <mxPoint x="500" y="700" as="targetPoint" />
          </mxGeometry>
        </mxCell>
        <mxCell id="ord0Oj6eiO0hLrdSNwYG-21" value="If val_1 == val_2" style="rhombus;whiteSpace=wrap;html=1;" vertex="1" parent="1">
          <mxGeometry x="270" y="660" width="180" height="80" as="geometry" />
        </mxCell>
        <mxCell id="ord0Oj6eiO0hLrdSNwYG-24" value="TRUE" style="text;strokeColor=none;align=center;fillColor=none;html=1;verticalAlign=middle;whiteSpace=wrap;rounded=0;" vertex="1" parent="1">
          <mxGeometry x="440" y="560" width="60" height="30" as="geometry" />
        </mxCell>
        <mxCell id="ord0Oj6eiO0hLrdSNwYG-26" value="TRUE" style="text;strokeColor=none;align=center;fillColor=none;html=1;verticalAlign=middle;whiteSpace=wrap;rounded=0;" vertex="1" parent="1">
          <mxGeometry x="440" y="670" width="60" height="30" as="geometry" />
        </mxCell>
        <mxCell id="ord0Oj6eiO0hLrdSNwYG-39" value="Display val_1,&lt;br&gt;&quot;is bigger than &quot;, val_2" style="shape=parallelogram;perimeter=parallelogramPerimeter;whiteSpace=wrap;html=1;fixedSize=1;" vertex="1" parent="1">
          <mxGeometry x="490" y="450" width="180" height="60" as="geometry" />
        </mxCell>
        <mxCell id="ord0Oj6eiO0hLrdSNwYG-43" style="edgeStyle=orthogonalEdgeStyle;rounded=0;orthogonalLoop=1;jettySize=auto;html=1;exitX=1;exitY=0.5;exitDx=0;exitDy=0;" edge="1" parent="1" source="ord0Oj6eiO0hLrdSNwYG-40">
          <mxGeometry relative="1" as="geometry">
            <mxPoint x="730" y="590" as="targetPoint" />
          </mxGeometry>
        </mxCell>
        <mxCell id="ord0Oj6eiO0hLrdSNwYG-40" value="Display val_1,&lt;br&gt;&quot;is smaller than &quot;, val_2" style="shape=parallelogram;perimeter=parallelogramPerimeter;whiteSpace=wrap;html=1;fixedSize=1;" vertex="1" parent="1">
          <mxGeometry x="490" y="560" width="180" height="60" as="geometry" />
        </mxCell>
        <mxCell id="ord0Oj6eiO0hLrdSNwYG-44" style="edgeStyle=orthogonalEdgeStyle;rounded=0;orthogonalLoop=1;jettySize=auto;html=1;exitX=1;exitY=0.5;exitDx=0;exitDy=0;" edge="1" parent="1" source="ord0Oj6eiO0hLrdSNwYG-41">
          <mxGeometry relative="1" as="geometry">
            <mxPoint x="730" y="700" as="targetPoint" />
          </mxGeometry>
        </mxCell>
        <mxCell id="ord0Oj6eiO0hLrdSNwYG-41" value="Display val_1,&lt;br&gt;&quot;is equal to &quot;, val_2" style="shape=parallelogram;perimeter=parallelogramPerimeter;whiteSpace=wrap;html=1;fixedSize=1;" vertex="1" parent="1">
          <mxGeometry x="490" y="670" width="180" height="60" as="geometry" />
        </mxCell>
        <mxCell id="ord0Oj6eiO0hLrdSNwYG-49" value="" style="edgeStyle=orthogonalEdgeStyle;rounded=0;orthogonalLoop=1;jettySize=auto;html=1;" edge="1" parent="1" source="ord0Oj6eiO0hLrdSNwYG-46" target="ord0Oj6eiO0hLrdSNwYG-48">
          <mxGeometry relative="1" as="geometry" />
        </mxCell>
        <mxCell id="ord0Oj6eiO0hLrdSNwYG-46" value="Prompt &amp;amp; Get &quot;Do you want&lt;br&gt;to continue?&quot;, isContinue" style="shape=parallelogram;perimeter=parallelogramPerimeter;whiteSpace=wrap;html=1;fixedSize=1;" vertex="1" parent="1">
          <mxGeometry x="270" y="760" width="180" height="60" as="geometry" />
        </mxCell>
        <mxCell id="ord0Oj6eiO0hLrdSNwYG-50" style="edgeStyle=orthogonalEdgeStyle;rounded=0;orthogonalLoop=1;jettySize=auto;html=1;exitX=0;exitY=0.5;exitDx=0;exitDy=0;entryX=0;entryY=0.5;entryDx=0;entryDy=0;" edge="1" parent="1" source="ord0Oj6eiO0hLrdSNwYG-48" target="ord0Oj6eiO0hLrdSNwYG-6">
          <mxGeometry relative="1" as="geometry">
            <mxPoint x="190" y="360" as="targetPoint" />
            <Array as="points">
              <mxPoint x="170" y="900" />
              <mxPoint x="170" y="370" />
            </Array>
          </mxGeometry>
        </mxCell>
        <mxCell id="ord0Oj6eiO0hLrdSNwYG-54" value="" style="edgeStyle=orthogonalEdgeStyle;rounded=0;orthogonalLoop=1;jettySize=auto;html=1;" edge="1" parent="1" source="ord0Oj6eiO0hLrdSNwYG-48" target="ord0Oj6eiO0hLrdSNwYG-16">
          <mxGeometry relative="1" as="geometry" />
        </mxCell>
        <mxCell id="ord0Oj6eiO0hLrdSNwYG-48" value="If isContinue == &quot;Yes&quot;" style="rhombus;whiteSpace=wrap;html=1;" vertex="1" parent="1">
          <mxGeometry x="280" y="860" width="160" height="80" as="geometry" />
        </mxCell>
        <mxCell id="ord0Oj6eiO0hLrdSNwYG-51" value="FALSE" style="text;strokeColor=none;align=center;fillColor=none;html=1;verticalAlign=middle;whiteSpace=wrap;rounded=0;" vertex="1" parent="1">
          <mxGeometry x="290" y="630" width="60" height="30" as="geometry" />
        </mxCell>
        <mxCell id="ord0Oj6eiO0hLrdSNwYG-53" value="TRUE" style="text;strokeColor=none;align=center;fillColor=none;html=1;verticalAlign=middle;whiteSpace=wrap;rounded=0;" vertex="1" parent="1">
          <mxGeometry x="230" y="870" width="60" height="30" as="geometry" />
        </mxCell>
        <mxCell id="ord0Oj6eiO0hLrdSNwYG-55" value="FALSE" style="text;strokeColor=none;align=center;fillColor=none;html=1;verticalAlign=middle;whiteSpace=wrap;rounded=0;" vertex="1" parent="1">
          <mxGeometry x="300" y="938" width="60" height="30" as="geometry" />
        </mxCell>
      </root>
    </mxGraphModel>
  </diagram>
</mxfile>
